<svg preserveAspectRatio="none" width="100%" height="100%" overflow="visible" style="display: block;" viewBox="0 0 12.5006 10.5026" fill="none" xmlns="http://www.w3.org/2000/svg">
<path id="Vector" d="M12.5006 5.25068C12.5006 5.44959 12.4216 5.64035 12.2809 5.78101C12.1403 5.92166 11.9495 6.00068 11.7506 6.00068H2.56309L5.78309 9.22005C5.92399 9.36095 6.00314 9.55204 6.00314 9.7513C6.00314 9.95056 5.92399 10.1417 5.78309 10.2826C5.64219 10.4234 5.4511 10.5026 5.25184 10.5026C5.05258 10.5026 4.86149 10.4234 4.72059 10.2826L0.220591 5.78255C0.150671 5.71287 0.0951937 5.63008 0.0573397 5.53891C0.0194856 5.44775 0 5.35001 0 5.2513C0 5.15259 0.0194856 5.05485 0.0573397 4.96369C0.0951937 4.87252 0.150671 4.78973 0.220591 4.72005L4.72059 0.220051C4.79036 0.150286 4.87318 0.0949456 4.96433 0.0571892C5.05548 0.0194328 5.15318 0 5.25184 0C5.3505 0 5.4482 0.0194328 5.53935 0.0571892C5.6305 0.0949456 5.71333 0.150286 5.78309 0.220051C5.85286 0.289816 5.9082 0.372638 5.94595 0.46379C5.98371 0.554942 6.00314 0.652639 6.00314 0.751301C6.00314 0.849963 5.98371 0.947659 5.94595 1.03881C5.9082 1.12996 5.85286 1.21279 5.78309 1.28255L2.56309 4.50068H11.7506C11.9495 4.50068 12.1403 4.57969 12.2809 4.72035C12.4216 4.861 12.5006 5.05176 12.5006 5.25068Z" fill="var(--fill-0, #D4D4D8)"/>
</svg>
