<svg preserveAspectRatio="none" width="100%" height="100%" overflow="visible" style="display: block;" viewBox="0 0 12.8333 11.4" fill="none" xmlns="http://www.w3.org/2000/svg">
<path id="icon" d="M4.55 3.5H8.28333L6.51667 0H6.31667L4.55 3.5ZM5.91667 11.4V4.5H0.166667L5.91667 11.4ZM6.91667 11.4L12.6667 4.5H6.91667V11.4ZM9.38333 3.5H12.8333L11.45 0.733333C11.3278 0.511111 11.1639 0.333333 10.9583 0.2C10.7528 0.0666667 10.5222 0 10.2667 0H7.65L9.38333 3.5ZM0 3.5H3.45L5.18333 0H2.56667C2.31111 0 2.08056 0.0666667 1.875 0.2C1.66944 0.333333 1.50556 0.511111 1.38333 0.733333L0 3.5Z" fill="var(--fill-0, #623CC9)"/>
</svg>
